<svg width="32" height="32" viewBox="0 0 32 32" fill="none" xmlns="http://www.w3.org/2000/svg">
<path d="M30.685 15.6962C30.6425 15.5987 29.6025 13.2925 27.28 10.97C25.125 8.8175 21.4225 6.25 16 6.25C10.5775 6.25 6.875 8.8175 4.72 10.97C2.3975 13.2925 1.3575 15.595 1.315 15.6962C1.27227 15.7923 1.25018 15.8962 1.25018 16.0012C1.25018 16.1063 1.27227 16.2102 1.315 16.3062C1.3575 16.4025 2.3975 18.7088 4.72 21.0312C6.875 23.1837 10.5775 25.75 16 25.75C21.4225 25.75 25.125 23.1837 27.28 21.0312C29.6025 18.7088 30.6425 16.4062 30.685 16.3062C30.7277 16.2102 30.7498 16.1063 30.7498 16.0012C30.7498 15.8962 30.7277 15.7923 30.685 15.6962ZM16 24.25C12.0775 24.25 8.6525 22.8225 5.81875 20.0088C4.63085 18.8282 3.62562 17.4771 2.83625 16C3.6254 14.5232 4.63065 13.1724 5.81875 11.9925C8.6525 9.1775 12.0775 7.75 16 7.75C19.9225 7.75 23.3475 9.1775 26.1812 11.9925C27.3694 13.1724 28.3746 14.5232 29.1637 16C28.3675 17.5263 24.375 24.25 16 24.25ZM16 10.25C14.8628 10.25 13.7511 10.5872 12.8055 11.219C11.8599 11.8509 11.1229 12.7489 10.6877 13.7996C10.2525 14.8502 10.1386 16.0064 10.3605 17.1218C10.5824 18.2372 11.13 19.2617 11.9341 20.0659C12.7383 20.87 13.7628 21.4176 14.8782 21.6395C15.9936 21.8614 17.1498 21.7475 18.2004 21.3123C19.2511 20.8771 20.1491 20.1401 20.781 19.1945C21.4128 18.2489 21.75 17.1372 21.75 16C21.748 14.4756 21.1416 13.0142 20.0637 11.9363C18.9858 10.8584 17.5244 10.252 16 10.25ZM16 20.25C15.1594 20.25 14.3377 20.0007 13.6388 19.5337C12.9399 19.0668 12.3952 18.403 12.0735 17.6264C11.7518 16.8498 11.6677 15.9953 11.8317 15.1709C11.9956 14.3464 12.4004 13.5892 12.9948 12.9948C13.5892 12.4004 14.3464 11.9956 15.1709 11.8317C15.9953 11.6677 16.8498 11.7518 17.6264 12.0735C18.403 12.3952 19.0668 12.9399 19.5337 13.6388C20.0007 14.3377 20.25 15.1594 20.25 16C20.25 17.1272 19.8022 18.2082 19.0052 19.0052C18.2082 19.8022 17.1272 20.25 16 20.25Z" fill="#E9E8E4"/>
<path d="M30.685 15.6962C30.6425 15.5987 29.6025 13.2925 27.28 10.97C25.125 8.8175 21.4225 6.25 16 6.25C10.5775 6.25 6.875 8.8175 4.72 10.97C2.3975 13.2925 1.3575 15.595 1.315 15.6962C1.27227 15.7923 1.25018 15.8962 1.25018 16.0012C1.25018 16.1063 1.27227 16.2102 1.315 16.3062C1.3575 16.4025 2.3975 18.7088 4.72 21.0312C6.875 23.1837 10.5775 25.75 16 25.75C21.4225 25.75 25.125 23.1837 27.28 21.0312C29.6025 18.7088 30.6425 16.4062 30.685 16.3062C30.7277 16.2102 30.7498 16.1063 30.7498 16.0012C30.7498 15.8962 30.7277 15.7923 30.685 15.6962ZM16 24.25C12.0775 24.25 8.6525 22.8225 5.81875 20.0088C4.63085 18.8282 3.62562 17.4771 2.83625 16C3.6254 14.5232 4.63065 13.1724 5.81875 11.9925C8.6525 9.1775 12.0775 7.75 16 7.75C19.9225 7.75 23.3475 9.1775 26.1812 11.9925C27.3694 13.1724 28.3746 14.5232 29.1637 16C28.3675 17.5263 24.375 24.25 16 24.25ZM16 10.25C14.8628 10.25 13.7511 10.5872 12.8055 11.219C11.8599 11.8509 11.1229 12.7489 10.6877 13.7996C10.2525 14.8502 10.1386 16.0064 10.3605 17.1218C10.5824 18.2372 11.13 19.2617 11.9341 20.0659C12.7383 20.87 13.7628 21.4176 14.8782 21.6395C15.9936 21.8614 17.1498 21.7475 18.2004 21.3123C19.2511 20.8771 20.1491 20.1401 20.781 19.1945C21.4128 18.2489 21.75 17.1372 21.75 16C21.748 14.4756 21.1416 13.0142 20.0637 11.9363C18.9858 10.8584 17.5244 10.252 16 10.25ZM16 20.25C15.1594 20.25 14.3377 20.0007 13.6388 19.5337C12.9399 19.0668 12.3952 18.403 12.0735 17.6264C11.7518 16.8498 11.6677 15.9953 11.8317 15.1709C11.9956 14.3464 12.4004 13.5892 12.9948 12.9948C13.5892 12.4004 14.3464 11.9956 15.1709 11.8317C15.9953 11.6677 16.8498 11.7518 17.6264 12.0735C18.403 12.3952 19.0668 12.9399 19.5337 13.6388C20.0007 14.3377 20.25 15.1594 20.25 16C20.25 17.1272 19.8022 18.2082 19.0052 19.0052C18.2082 19.8022 17.1272 20.25 16 20.25Z" fill="black" fill-opacity="0.2"/>
<path d="M30.685 15.6962C30.6425 15.5987 29.6025 13.2925 27.28 10.97C25.125 8.8175 21.4225 6.25 16 6.25C10.5775 6.25 6.875 8.8175 4.72 10.97C2.3975 13.2925 1.3575 15.595 1.315 15.6962C1.27227 15.7923 1.25018 15.8962 1.25018 16.0012C1.25018 16.1063 1.27227 16.2102 1.315 16.3062C1.3575 16.4025 2.3975 18.7088 4.72 21.0312C6.875 23.1837 10.5775 25.75 16 25.75C21.4225 25.75 25.125 23.1837 27.28 21.0312C29.6025 18.7088 30.6425 16.4062 30.685 16.3062C30.7277 16.2102 30.7498 16.1063 30.7498 16.0012C30.7498 15.8962 30.7277 15.7923 30.685 15.6962ZM16 24.25C12.0775 24.25 8.6525 22.8225 5.81875 20.0088C4.63085 18.8282 3.62562 17.4771 2.83625 16C3.6254 14.5232 4.63065 13.1724 5.81875 11.9925C8.6525 9.1775 12.0775 7.75 16 7.75C19.9225 7.75 23.3475 9.1775 26.1812 11.9925C27.3694 13.1724 28.3746 14.5232 29.1637 16C28.3675 17.5263 24.375 24.25 16 24.25ZM16 10.25C14.8628 10.25 13.7511 10.5872 12.8055 11.219C11.8599 11.8509 11.1229 12.7489 10.6877 13.7996C10.2525 14.8502 10.1386 16.0064 10.3605 17.1218C10.5824 18.2372 11.13 19.2617 11.9341 20.0659C12.7383 20.87 13.7628 21.4176 14.8782 21.6395C15.9936 21.8614 17.1498 21.7475 18.2004 21.3123C19.2511 20.8771 20.1491 20.1401 20.781 19.1945C21.4128 18.2489 21.75 17.1372 21.75 16C21.748 14.4756 21.1416 13.0142 20.0637 11.9363C18.9858 10.8584 17.5244 10.252 16 10.25ZM16 20.25C15.1594 20.25 14.3377 20.0007 13.6388 19.5337C12.9399 19.0668 12.3952 18.403 12.0735 17.6264C11.7518 16.8498 11.6677 15.9953 11.8317 15.1709C11.9956 14.3464 12.4004 13.5892 12.9948 12.9948C13.5892 12.4004 14.3464 11.9956 15.1709 11.8317C15.9953 11.6677 16.8498 11.7518 17.6264 12.0735C18.403 12.3952 19.0668 12.9399 19.5337 13.6388C20.0007 14.3377 20.25 15.1594 20.25 16C20.25 17.1272 19.8022 18.2082 19.0052 19.0052C18.2082 19.8022 17.1272 20.25 16 20.25Z" fill="black" fill-opacity="0.2"/>
</svg>
