<svg width="33" height="33" viewBox="0 0 33 33" fill="none" xmlns="http://www.w3.org/2000/svg">
<path d="M6.76377 4.82872C6.62647 4.70128 6.44644 4.62983 6.25911 4.62844C6.07179 4.62705 5.89072 4.69581 5.75154 4.8212C5.61236 4.94658 5.52514 5.11952 5.50705 5.30597C5.48895 5.49243 5.54129 5.67891 5.65377 5.82872L8.26377 8.70372C3.60377 11.4412 1.61002 15.8287 1.52377 16.025C1.48103 16.121 1.45895 16.2249 1.45895 16.33C1.45895 16.4351 1.48103 16.539 1.52377 16.635C1.56627 16.7312 2.60627 19.0375 4.92877 21.36C7.08377 23.5125 10.7863 26.0787 16.2088 26.0787C18.4753 26.0925 20.7176 25.6126 22.78 24.6725L25.655 27.8337C25.789 27.9809 25.9759 28.0689 26.1747 28.0783C26.3735 28.0876 26.5678 28.0177 26.715 27.8837C26.8622 27.7498 26.9502 27.5629 26.9596 27.3641C26.9689 27.1653 26.899 26.9709 26.765 26.8237L6.76377 4.82872ZM12.8413 13.7437L18.4663 19.9337C17.6217 20.4614 16.6187 20.6758 15.6323 20.5395C14.6458 20.4031 13.7385 19.9247 13.0688 19.1877C12.3991 18.4507 12.0094 17.502 11.9678 16.507C11.9263 15.512 12.2354 14.534 12.8413 13.7437ZM16.2088 24.5787C12.2863 24.5787 8.86127 23.1512 6.02752 20.3375C4.83933 19.1571 3.83408 17.806 3.04502 16.3287C3.58127 15.3037 5.55752 11.9312 9.29502 9.83997L11.82 12.6162C10.921 13.6815 10.4396 15.0371 10.4653 16.4307C10.4911 17.8244 11.0222 19.1613 11.9599 20.1926C12.8975 21.224 14.1779 21.8796 15.5629 22.0376C16.9478 22.1955 18.343 21.845 19.4888 21.0512L21.715 23.5012C19.9697 24.2234 18.0976 24.5898 16.2088 24.5787ZM17.0088 12.1537C16.8133 12.1164 16.6407 12.003 16.5289 11.8385C16.4171 11.6739 16.3752 11.4716 16.4125 11.2762C16.4498 11.0808 16.5632 10.9082 16.7278 10.7964C16.8923 10.6845 17.0946 10.6427 17.29 10.68C18.5113 10.9172 19.6232 11.5428 20.46 12.4634C21.2969 13.384 21.8138 14.5504 21.9338 15.7887C21.9429 15.8868 21.9326 15.9857 21.9035 16.0798C21.8744 16.1739 21.827 16.2614 21.7641 16.3372C21.7012 16.413 21.624 16.4756 21.5368 16.5216C21.4497 16.5675 21.3544 16.5959 21.2563 16.605H21.1863C20.9987 16.6058 20.8177 16.5362 20.6788 16.4101C20.54 16.284 20.4535 16.1105 20.4363 15.9237C20.3471 15.01 19.9654 14.1495 19.3478 13.4702C18.7302 12.791 17.9099 12.3292 17.0088 12.1537ZM30.8938 16.635C30.8425 16.75 29.5975 19.51 26.7863 22.025C26.7133 22.0933 26.6275 22.1464 26.5338 22.1811C26.44 22.2158 26.3403 22.2314 26.2405 22.227C26.1406 22.2226 26.0427 22.1983 25.9523 22.1555C25.862 22.1128 25.7811 22.0523 25.7145 21.9779C25.6478 21.9034 25.5968 21.8163 25.5642 21.7218C25.5317 21.6273 25.5184 21.5273 25.5251 21.4276C25.5318 21.3278 25.5583 21.2305 25.6032 21.1411C25.648 21.0518 25.7103 20.9724 25.7863 20.9075C27.2394 19.6019 28.4531 18.0523 29.3725 16.3287C28.5833 14.8515 27.5781 13.5004 26.39 12.32C23.5563 9.50622 20.1313 8.07872 16.2088 8.07872C15.3843 8.07773 14.5611 8.14463 13.7475 8.27872C13.6496 8.29718 13.5489 8.29594 13.4514 8.27505C13.354 8.25416 13.2616 8.21406 13.1799 8.15708C13.0981 8.1001 13.0285 8.02738 12.9751 7.94319C12.9217 7.85899 12.8857 7.76501 12.8691 7.66672C12.8525 7.56843 12.8556 7.46782 12.8783 7.37076C12.901 7.27371 12.9429 7.18215 13.0014 7.10145C13.0599 7.02075 13.1339 6.95253 13.2191 6.90076C13.3043 6.84899 13.3989 6.81473 13.4975 6.79997C14.3936 6.65122 15.3004 6.57721 16.2088 6.57872C21.6313 6.57872 25.3338 9.14622 27.4888 11.2987C29.8113 13.6212 30.8513 15.9237 30.8938 16.025C30.9365 16.121 30.9586 16.2249 30.9586 16.33C30.9586 16.4351 30.9365 16.539 30.8938 16.635Z" fill="#E9E8E4"/>
<path d="M6.76377 4.82872C6.62647 4.70128 6.44644 4.62983 6.25911 4.62844C6.07179 4.62705 5.89072 4.69581 5.75154 4.8212C5.61236 4.94658 5.52514 5.11952 5.50705 5.30597C5.48895 5.49243 5.54129 5.67891 5.65377 5.82872L8.26377 8.70372C3.60377 11.4412 1.61002 15.8287 1.52377 16.025C1.48103 16.121 1.45895 16.2249 1.45895 16.33C1.45895 16.4351 1.48103 16.539 1.52377 16.635C1.56627 16.7312 2.60627 19.0375 4.92877 21.36C7.08377 23.5125 10.7863 26.0787 16.2088 26.0787C18.4753 26.0925 20.7176 25.6126 22.78 24.6725L25.655 27.8337C25.789 27.9809 25.9759 28.0689 26.1747 28.0783C26.3735 28.0876 26.5678 28.0177 26.715 27.8837C26.8622 27.7498 26.9502 27.5629 26.9596 27.3641C26.9689 27.1653 26.899 26.9709 26.765 26.8237L6.76377 4.82872ZM12.8413 13.7437L18.4663 19.9337C17.6217 20.4614 16.6187 20.6758 15.6323 20.5395C14.6458 20.4031 13.7385 19.9247 13.0688 19.1877C12.3991 18.4507 12.0094 17.502 11.9678 16.507C11.9263 15.512 12.2354 14.534 12.8413 13.7437ZM16.2088 24.5787C12.2863 24.5787 8.86127 23.1512 6.02752 20.3375C4.83933 19.1571 3.83408 17.806 3.04502 16.3287C3.58127 15.3037 5.55752 11.9312 9.29502 9.83997L11.82 12.6162C10.921 13.6815 10.4396 15.0371 10.4653 16.4307C10.4911 17.8244 11.0222 19.1613 11.9599 20.1926C12.8975 21.224 14.1779 21.8796 15.5629 22.0376C16.9478 22.1955 18.343 21.845 19.4888 21.0512L21.715 23.5012C19.9697 24.2234 18.0976 24.5898 16.2088 24.5787ZM17.0088 12.1537C16.8133 12.1164 16.6407 12.003 16.5289 11.8385C16.4171 11.6739 16.3752 11.4716 16.4125 11.2762C16.4498 11.0808 16.5632 10.9082 16.7278 10.7964C16.8923 10.6845 17.0946 10.6427 17.29 10.68C18.5113 10.9172 19.6232 11.5428 20.46 12.4634C21.2969 13.384 21.8138 14.5504 21.9338 15.7887C21.9429 15.8868 21.9326 15.9857 21.9035 16.0798C21.8744 16.1739 21.827 16.2614 21.7641 16.3372C21.7012 16.413 21.624 16.4756 21.5368 16.5216C21.4497 16.5675 21.3544 16.5959 21.2563 16.605H21.1863C20.9987 16.6058 20.8177 16.5362 20.6788 16.4101C20.54 16.284 20.4535 16.1105 20.4363 15.9237C20.3471 15.01 19.9654 14.1495 19.3478 13.4702C18.7302 12.791 17.9099 12.3292 17.0088 12.1537ZM30.8938 16.635C30.8425 16.75 29.5975 19.51 26.7863 22.025C26.7133 22.0933 26.6275 22.1464 26.5338 22.1811C26.44 22.2158 26.3403 22.2314 26.2405 22.227C26.1406 22.2226 26.0427 22.1983 25.9523 22.1555C25.862 22.1128 25.7811 22.0523 25.7145 21.9779C25.6478 21.9034 25.5968 21.8163 25.5642 21.7218C25.5317 21.6273 25.5184 21.5273 25.5251 21.4276C25.5318 21.3278 25.5583 21.2305 25.6032 21.1411C25.648 21.0518 25.7103 20.9724 25.7863 20.9075C27.2394 19.6019 28.4531 18.0523 29.3725 16.3287C28.5833 14.8515 27.5781 13.5004 26.39 12.32C23.5563 9.50622 20.1313 8.07872 16.2088 8.07872C15.3843 8.07773 14.5611 8.14463 13.7475 8.27872C13.6496 8.29718 13.5489 8.29594 13.4514 8.27505C13.354 8.25416 13.2616 8.21406 13.1799 8.15708C13.0981 8.1001 13.0285 8.02738 12.9751 7.94319C12.9217 7.85899 12.8857 7.76501 12.8691 7.66672C12.8525 7.56843 12.8556 7.46782 12.8783 7.37076C12.901 7.27371 12.9429 7.18215 13.0014 7.10145C13.0599 7.02075 13.1339 6.95253 13.2191 6.90076C13.3043 6.84899 13.3989 6.81473 13.4975 6.79997C14.3936 6.65122 15.3004 6.57721 16.2088 6.57872C21.6313 6.57872 25.3338 9.14622 27.4888 11.2987C29.8113 13.6212 30.8513 15.9237 30.8938 16.025C30.9365 16.121 30.9586 16.2249 30.9586 16.33C30.9586 16.4351 30.9365 16.539 30.8938 16.635Z" fill="black" fill-opacity="0.2"/>
<path d="M6.76377 4.82872C6.62647 4.70128 6.44644 4.62983 6.25911 4.62844C6.07179 4.62705 5.89072 4.69581 5.75154 4.8212C5.61236 4.94658 5.52514 5.11952 5.50705 5.30597C5.48895 5.49243 5.54129 5.67891 5.65377 5.82872L8.26377 8.70372C3.60377 11.4412 1.61002 15.8287 1.52377 16.025C1.48103 16.121 1.45895 16.2249 1.45895 16.33C1.45895 16.4351 1.48103 16.539 1.52377 16.635C1.56627 16.7312 2.60627 19.0375 4.92877 21.36C7.08377 23.5125 10.7863 26.0787 16.2088 26.0787C18.4753 26.0925 20.7176 25.6126 22.78 24.6725L25.655 27.8337C25.789 27.9809 25.9759 28.0689 26.1747 28.0783C26.3735 28.0876 26.5678 28.0177 26.715 27.8837C26.8622 27.7498 26.9502 27.5629 26.9596 27.3641C26.9689 27.1653 26.899 26.9709 26.765 26.8237L6.76377 4.82872ZM12.8413 13.7437L18.4663 19.9337C17.6217 20.4614 16.6187 20.6758 15.6323 20.5395C14.6458 20.4031 13.7385 19.9247 13.0688 19.1877C12.3991 18.4507 12.0094 17.502 11.9678 16.507C11.9263 15.512 12.2354 14.534 12.8413 13.7437ZM16.2088 24.5787C12.2863 24.5787 8.86127 23.1512 6.02752 20.3375C4.83933 19.1571 3.83408 17.806 3.04502 16.3287C3.58127 15.3037 5.55752 11.9312 9.29502 9.83997L11.82 12.6162C10.921 13.6815 10.4396 15.0371 10.4653 16.4307C10.4911 17.8244 11.0222 19.1613 11.9599 20.1926C12.8975 21.224 14.1779 21.8796 15.5629 22.0376C16.9478 22.1955 18.343 21.845 19.4888 21.0512L21.715 23.5012C19.9697 24.2234 18.0976 24.5898 16.2088 24.5787ZM17.0088 12.1537C16.8133 12.1164 16.6407 12.003 16.5289 11.8385C16.4171 11.6739 16.3752 11.4716 16.4125 11.2762C16.4498 11.0808 16.5632 10.9082 16.7278 10.7964C16.8923 10.6845 17.0946 10.6427 17.29 10.68C18.5113 10.9172 19.6232 11.5428 20.46 12.4634C21.2969 13.384 21.8138 14.5504 21.9338 15.7887C21.9429 15.8868 21.9326 15.9857 21.9035 16.0798C21.8744 16.1739 21.827 16.2614 21.7641 16.3372C21.7012 16.413 21.624 16.4756 21.5368 16.5216C21.4497 16.5675 21.3544 16.5959 21.2563 16.605H21.1863C20.9987 16.6058 20.8177 16.5362 20.6788 16.4101C20.54 16.284 20.4535 16.1105 20.4363 15.9237C20.3471 15.01 19.9654 14.1495 19.3478 13.4702C18.7302 12.791 17.9099 12.3292 17.0088 12.1537ZM30.8938 16.635C30.8425 16.75 29.5975 19.51 26.7863 22.025C26.7133 22.0933 26.6275 22.1464 26.5338 22.1811C26.44 22.2158 26.3403 22.2314 26.2405 22.227C26.1406 22.2226 26.0427 22.1983 25.9523 22.1555C25.862 22.1128 25.7811 22.0523 25.7145 21.9779C25.6478 21.9034 25.5968 21.8163 25.5642 21.7218C25.5317 21.6273 25.5184 21.5273 25.5251 21.4276C25.5318 21.3278 25.5583 21.2305 25.6032 21.1411C25.648 21.0518 25.7103 20.9724 25.7863 20.9075C27.2394 19.6019 28.4531 18.0523 29.3725 16.3287C28.5833 14.8515 27.5781 13.5004 26.39 12.32C23.5563 9.50622 20.1313 8.07872 16.2088 8.07872C15.3843 8.07773 14.5611 8.14463 13.7475 8.27872C13.6496 8.29718 13.5489 8.29594 13.4514 8.27505C13.354 8.25416 13.2616 8.21406 13.1799 8.15708C13.0981 8.1001 13.0285 8.02738 12.9751 7.94319C12.9217 7.85899 12.8857 7.76501 12.8691 7.66672C12.8525 7.56843 12.8556 7.46782 12.8783 7.37076C12.901 7.27371 12.9429 7.18215 13.0014 7.10145C13.0599 7.02075 13.1339 6.95253 13.2191 6.90076C13.3043 6.84899 13.3989 6.81473 13.4975 6.79997C14.3936 6.65122 15.3004 6.57721 16.2088 6.57872C21.6313 6.57872 25.3338 9.14622 27.4888 11.2987C29.8113 13.6212 30.8513 15.9237 30.8938 16.025C30.9365 16.121 30.9586 16.2249 30.9586 16.33C30.9586 16.4351 30.9365 16.539 30.8938 16.635Z" fill="black" fill-opacity="0.2"/>
</svg>
